<?xml version="1.0" encoding="iso-8859-1"?>
<!-- Generator: Adobe Illustrator 19.0.0, SVG Export Plug-In . SVG Version: 6.00 Build 0)  -->
<svg version="1.1" id="Capa_1" xmlns="http://www.w3.org/2000/svg" xmlns:xlink="http://www.w3.org/1999/xlink" x="0px" y="0px"
	 viewBox="0 0 511.567 511.567" style="enable-background:new 0 0 511.567 511.567;" xml:space="preserve">
<g>
	<g>
		<path d="M276.001,259.779h-0.078c-2.201,0-3.949,1.787-3.949,3.998c0,2.209,1.826,3.996,4.027,3.996
			c2.217,0,3.996-1.787,3.996-3.996C279.997,261.566,278.218,259.779,276.001,259.779z"/>
	</g>
</g>
<g>
	<g>
		<path d="M156.107,315.732h-0.078c-2.209,0-3.958,1.787-3.958,3.996s1.831,3.998,4.036,3.998c2.209,0,3.996-1.789,3.996-3.998
			C160.103,317.519,158.316,315.732,156.107,315.732z"/>
	</g>
</g>
<g>
	<g>
		<path d="M291.987,211.82h-0.078c-2.201,0-3.949,1.788-3.949,3.997c0,2.209,1.826,3.997,4.027,3.997
			c2.217,0,3.996-1.788,3.996-3.997C295.983,213.607,294.204,211.82,291.987,211.82z"/>
	</g>
</g>
<g>
	<g>
		<path d="M260.018,131.888h-0.078c-2.209,0-3.958,1.787-3.958,3.996s1.831,3.997,4.036,3.997c2.209,0,3.993-1.787,3.992-3.997
			C264.01,133.676,262.227,131.888,260.018,131.888z"/>
	</g>
</g>
<g>
	<g>
		<path d="M180.086,211.82h-0.078c-2.209,0-3.958,1.788-3.958,3.997c0,2.209,1.831,3.997,4.036,3.997
			c2.209,0,3.997-1.788,3.997-3.997C184.083,213.607,182.295,211.82,180.086,211.82z"/>
	</g>
</g>
<g>
	<g>
		<path d="M228.046,347.706h-0.078c-2.209,0-3.958,1.787-3.958,3.996s1.83,3.998,4.036,3.998c2.209,0,3.997-1.789,3.997-3.998
			C232.043,349.492,230.255,347.706,228.046,347.706z"/>
	</g>
</g>
<g>
	<g>
		<path d="M188.079,371.686h-0.078c-2.209,0-3.958,1.787-3.958,3.996c0,2.209,1.831,3.996,4.036,3.996
			c2.209,0,3.997-1.787,3.997-3.996C192.076,373.473,190.288,371.686,188.079,371.686z"/>
	</g>
</g>
<g>
	<g>
		<path d="M211.821,43.964C95.021,43.964,0,138.984,0,255.784s95.022,211.82,211.821,211.82s211.82-95.021,211.82-211.82
			S328.62,43.964,211.821,43.964z M211.821,459.612c-112.39,0-203.828-91.44-203.828-203.829S99.432,51.956,211.821,51.956
			s203.828,91.439,203.828,203.828C415.649,368.173,324.21,459.612,211.821,459.612z"/>
	</g>
</g>
<g>
	<g>
		<path d="M211.821,99.914c-85.947,0-155.868,69.922-155.868,155.868c0,85.944,69.921,155.868,155.868,155.868
			c85.943,0,155.867-69.924,155.867-155.868C367.688,169.836,297.764,99.914,211.821,99.914z M211.821,403.659
			c-81.541,0-147.875-66.333-147.875-147.875c0-81.541,66.334-147.875,147.875-147.875s147.875,66.334,147.875,147.875
			S293.362,403.659,211.821,403.659z"/>
	</g>
</g>
<g>
	<g>
		<path d="M475.598,107.909c-19.836,0-35.971,23.308-35.971,51.956s16.135,51.956,35.971,51.956
			c19.834,0,35.969-23.308,35.969-51.956S495.432,107.909,475.598,107.909z M475.598,203.828c-15.426,0-27.977-19.722-27.977-43.963
			s12.551-43.962,27.977-43.962c15.424,0,27.975,19.721,27.975,43.962C503.573,184.106,491.022,203.828,475.598,203.828z"/>
	</g>
</g>
<g>
	<g>
		<path d="M467.604,219.813c-2.209,0-3.996,1.788-3.996,3.997v175.852c0,2.209,1.787,3.996,3.996,3.996s3.996-1.787,3.996-3.996
			V223.81C471.6,221.602,469.813,219.813,467.604,219.813z"/>
	</g>
</g>
<g>
	<g>
		<path d="M483.591,219.813c-2.209,0-3.996,1.788-3.996,3.997v175.852c0,2.209,1.787,3.996,3.996,3.996s3.996-1.787,3.996-3.996
			V223.81C487.587,221.602,485.8,219.813,483.591,219.813z"/>
	</g>
</g>
<g>
	<g>
		<path d="M483.59,395.664c-2.209,0-3.996,1.789-3.996,3.998c0,2.201-1.795,3.996-3.996,3.996s-3.998-1.795-3.998-3.996
			c0-2.209-1.787-3.998-3.996-3.998c-2.209,0-3.996,1.789-3.996,3.998c0,6.611,5.377,11.988,11.99,11.988
			c6.612,0,11.989-5.377,11.988-11.988C487.586,397.453,485.799,395.664,483.59,395.664z"/>
	</g>
</g>
<g>
	<g>
		<path d="M211.821,123.895c-72.723,0-131.888,59.165-131.888,131.888c0,2.21,1.787,3.997,3.996,3.997
			c2.209,0,3.997-1.787,3.997-3.997c0-68.317,55.578-123.895,123.895-123.895c2.209,0,3.997-1.788,3.997-3.997
			S214.03,123.895,211.821,123.895z"/>
	</g>
</g>
<g>
	<g>
		<path d="M138.747,291.831l-4.805-22.395c-0.317-1.482-1.445-2.654-2.912-3.037l-17.31-4.457c-1.346-0.352-2.767,0.023-3.762,0.992
			c-0.999,0.959-1.433,2.365-1.14,3.715l5.031,23.441c0.316,1.482,1.444,2.654,2.908,3.037l17.31,4.465
			c0.332,0.086,0.667,0.125,0.999,0.125c0.027,0,0.054,0,0.082,0.001c2.42,0.078,4.075-1.756,4.075-3.996
			C139.223,293.034,139.051,292.393,138.747,291.831z M121.144,286l-3.153-14.707l8.656,2.232l3.154,14.707L121.144,286z"/>
	</g>
</g>
<g>
	<g>
		<path d="M278.952,343.162c-1.109-0.836-2.576-1.022-3.857-0.508l-22.277,8.844c-1.405,0.562-2.377,1.867-2.506,3.373
			l-1.542,17.812c-0.121,1.383,0.484,2.725,1.596,3.553c0.699,0.523,1.538,0.787,2.385,0.787c0.496,0,0.999-0.094,1.476-0.279
			l22.29-8.846c1.404-0.56,2.373-1.865,2.506-3.371l1.529-17.812C280.669,345.333,280.067,343.99,278.952,343.162z M271.27,361.38
			l-13.98,5.543l0.773-8.906l13.973-5.543L271.27,361.38z"/>
	</g>
</g>
<g>
	<g>
		<path d="M340.596,261.256l-8.938-21.155c-0.586-1.398-1.904-2.338-3.42-2.436l-17.844-1.147c-1.405-0.032-2.717,0.546-3.512,1.674
			c-0.805,1.132-0.969,2.596-0.422,3.872l9.336,22.079c0.586,1.399,1.904,2.334,3.418,2.436l17.838,1.156
			c0.086,0.008,0.172,0.008,0.258,0.008c0.052,0,0.099,0,0.154,0c2.216,0,3.998-1.787,3.999-3.997
			C341.463,262.801,341.143,261.942,340.596,261.256z M322.196,258.763l-5.854-13.852l8.914,0.573l5.854,13.855L322.196,258.763z"/>
	</g>
</g>
<g>
	<g>
		<path d="M240.746,264.214c-9.535-9.527-30.427-19.807-47.55-19.807c-7.868,0-14.023,2.166-18.293,6.437
			c-15.148,15.159-0.176,52.282,13.379,65.843c7.006,7.002,16.323,10.865,26.228,10.865c9.906,0,19.226-3.864,26.236-10.865
			C255.206,302.214,255.206,278.679,240.746,264.214z M235.093,311.034c-10.998,10.99-30.169,10.99-41.16,0
			c-12.465-12.475-23.784-44.127-13.379-54.54c2.717-2.717,6.971-4.095,12.642-4.095c14.605,0,33.456,9.036,41.897,17.467
			C246.439,281.216,246.439,299.685,235.093,311.034z"/>
	</g>
</g>
<g>
	<g>
		<path d="M224.026,274.244c-8.664-8.648-22.165-10.234-29.038-3.357c-3.587,3.584-5.109,8.698-4.289,14.387
			c0.757,5.27,3.473,10.469,7.653,14.645c4.996,5.004,11.397,7.867,17.556,7.867c4.5,0,8.578-1.6,11.486-4.505
			C234.463,296.201,232.952,283.174,224.026,274.244z M221.739,297.632c-1.788,1.787-4.157,2.162-5.831,2.162
			c-3.992,0-8.442-2.06-11.904-5.527c-2.966-2.965-4.883-6.565-5.394-10.131c-0.453-3.139,0.269-5.832,2.029-7.596
			c1.787-1.787,4.157-2.162,5.827-2.162c3.997,0,8.446,2.06,11.909,5.52C224.089,285.611,225.626,293.737,221.739,297.632z"/>
	</g>
</g>
<g>
	<g>
		<path d="M255.761,215.388c-4.02-37.245-34.904-43.408-35.216-43.467c-2.174-0.418-4.258,1.03-4.66,3.2
			c-0.403,2.17,1.03,4.254,3.2,4.66c0.253,0.047,25.341,5.067,28.729,36.466c0.223,2.049,1.952,3.567,3.97,3.567
			c0.14,0,0.288-0.008,0.434-0.023C254.411,219.552,255.999,217.581,255.761,215.388z"/>
	</g>
</g>
<g>
	<g>
		<path d="M242.943,161.628c-5.979-2.986-18.844-6.077-30.018-6.077c-10.432,0-17.044,2.646-19.647,7.853
			c-2.954,5.89-0.078,14.172,8.317,23.953c6.057,7.06,14.297,13.995,20.034,16.868c3.345,1.674,6.924,2.521,10.644,2.521
			c9.082,0,17.247-5.043,21.313-13.161C259.46,181.846,254.691,167.51,242.943,161.628z M246.437,190.007
			c-3.797,7.603-13.543,10.921-21.228,7.068c-4.028-2.014-11.545-7.927-17.548-14.921c-6.47-7.54-8.298-13.051-7.236-15.171
			c0.832-1.662,4.551-3.438,12.501-3.438c9.862,0,21.407,2.717,26.443,5.234C247.171,172.686,250.34,182.208,246.437,190.007z"/>
	</g>
</g>
<g>
	<g>
		<path d="M156.31,195.857c-9.32-1.038-16.627,0.746-21.716,5.297c-6.624,5.928-6.702,14.308-6.702,14.663
			c0,2.209,1.788,3.997,3.997,3.997c2.209,0,3.996-1.787,3.996-3.996c0-0.051,0.109-5.191,4.04-8.708
			c3.317-2.971,8.512-4.095,15.502-3.306c2.186,0.222,4.169-1.335,4.415-3.532C160.084,198.078,158.504,196.103,156.31,195.857z"/>
	</g>
</g>
<g>
	<g>
		<path d="M307.434,307.747c-15.682,1.195-19.412-11.482-19.795-12.957c-0.523-2.139-2.662-3.41-4.824-2.928
			c-2.146,0.523-3.457,2.686-2.943,4.832c1.664,6.83,9.102,19.133,25.541,19.133c0.859,0,1.734-0.039,2.63-0.101
			c2.194-0.172,3.85-2.092,3.678-4.293C311.557,309.231,309.721,307.601,307.434,307.747z"/>
	</g>
</g>
<g>
	<g>
		<path d="M156.625,355.769c-24.471-4.714-28.667-20.281-28.843-20.982c-0.514-2.139-2.637-3.451-4.792-2.967
			c-2.147,0.5-3.486,2.647-2.986,4.801c0.199,0.867,5.257,21.24,35.107,27c0.258,0.047,0.511,0.07,0.761,0.07
			c1.877,0,3.552-1.326,3.919-3.238C160.212,358.284,158.792,356.19,156.625,355.769z"/>
	</g>
</g>
<g>
	<g>
		<path d="M318.964,189.489c-9.662-13.29-20.17-9.551-20.623-9.387c-2.021,0.761-3.011,2.974-2.318,5.019
			c0.695,2.045,2.974,3.15,5.027,2.502c0.226-0.062,5.519-1.588,11.451,6.565c0.781,1.077,1.998,1.646,3.232,1.646
			c0.821,0,1.639-0.249,2.35-0.764C319.87,193.773,320.261,191.271,318.964,189.489z"/>
	</g>
</g>
<g>
</g>
<g>
</g>
<g>
</g>
<g>
</g>
<g>
</g>
<g>
</g>
<g>
</g>
<g>
</g>
<g>
</g>
<g>
</g>
<g>
</g>
<g>
</g>
<g>
</g>
<g>
</g>
<g>
</g>
</svg>
